Coordinates
version=1
nRows=23
nColumns=28
inDegrees=yes

Units are S.I. units (second, meters, Newtons, ...)
Angles are in degrees.

endheader
time	pelvis_tilt	pelvis_list	pelvis_rotation	pelvis_tx	pelvis_ty	pelvis_tz	hip_flexion_r	hip_adduction_r	hip_rotation_r	knee_angle_r	ankle_angle_r	subtalar_angle_r	mtp_angle_r	hip_flexion_l	hip_adduction_l	hip_rotation_l	knee_angle_l	socket_flexion	socket_adduction	socket_rotation	socket_tx	socket_ty	socket_tz	foot_flex	lumbar_extension	lumbar_bending	lumbar_rotation
      0.54583333	      0.85965607	     -4.84270716	     11.00697303	     -0.03658845	      0.96501317	      0.21372399	     23.69393274	      5.53390922	     -5.46585833	     -9.49210360	      6.42831485	    -19.90044435	     -5.90228366	    -18.06076097	     -5.56995567	     -7.69726246	    -15.71225916	     -0.68726193	     -5.76629314	     20.05706426	      0.00000000	      0.00035048	      0.00000000	      9.94106504	     -8.67926181	      5.89363575	    -18.37078714
      0.55000000	      0.54693359	     -4.65028147	     10.98699802	     -0.03705719	      0.96457129	      0.21384933	     24.29704864	      5.20573768	     -5.79651283	    -10.02144138	      6.56745790	    -19.67824300	     -5.52839123	    -17.66455731	     -5.26549349	     -7.12785441	    -15.77496994	     -0.64105947	     -5.70358739	     19.54246951	      0.00000000	      0.00027650	      0.00000000	      9.94968296	     -8.42601316	      5.54754679	    -18.20513622
      0.55416667	      0.63034477	     -4.83741289	     10.88989207	     -0.03044232	      0.96321587	      0.21369189	     24.60851688	      5.50804462	     -5.80964929	    -11.09112194	      5.95716035	    -19.79881689	     -5.27928703	    -17.96553334	     -5.49614019	     -7.50713536	    -15.99789781	     -0.43936354	     -5.70596162	     19.67728218	      0.00000000	      0.00019593	      0.00000000	      9.98246781	     -8.41256559	      5.93403033	    -18.45829132
      0.55833333	      0.71068732	     -4.92360621	     11.00712193	     -0.02401759	      0.96209851	      0.21329795	     24.74950517	      5.67143112	     -5.58931009	    -11.89611145	      5.61727266	    -19.77688983	     -5.20616101	    -18.16531402	     -5.67143806	     -7.43232053	    -16.26984512	     -0.15795665	     -5.74290052	     19.77402505	      0.00000000	      0.00031857	      0.00000000	     10.00437404	     -8.42632846	      6.14608979	    -18.48459576
      0.56250000	      0.81097131	     -5.02763660	     10.95411439	     -0.01761663	      0.96090524	      0.21317777	     25.03240942	      5.88141042	     -5.54122300	    -12.99135739	      5.07793102	    -19.82269259	     -5.10789653	    -18.39260773	     -5.81872725	     -7.51344142	    -16.58158168	      0.09604594	     -5.72549199	     19.72882352	      0.00000000	      0.00033497	      0.00000000	      9.99787815	     -8.48481100	      6.37870540	    -18.53223285
      0.56666667	      0.45363372	     -5.07237387	     10.75395383	     -0.01116037	      0.95908048	      0.21343795	     25.84637623	      5.99786388	     -5.33586049	    -14.12596842	      3.13336107	    -21.52604855	     -0.47092869	    -17.89745877	     -5.85517169	     -8.12350982	    -17.72954686	     -0.11877096	     -6.01100174	     20.03760487	      0.00000000	      0.00064171	      0.00000000	      9.91746068	     -8.01070356	      6.39030140	    -18.36563247
      0.57083333	      0.55784842	     -5.16976978	     10.80694015	     -0.00474715	      0.95807774	      0.21323559	     25.98795603	      6.19697961	     -5.12644737	    -14.99478713	      2.78813118	    -21.43597534	     -0.46953880	    -18.05659810	     -6.02507308	     -8.02990618	    -18.04726099	      0.25073179	     -5.98423853	     20.03360304	      0.00000000	      0.00073405	      0.00000000	      9.85032451	     -8.06668327	      6.62047167	    -18.37475105
      0.57500000	      0.62348715	     -5.26626851	     10.61373530	      0.00185635	      0.95687871	      0.21336366	     26.35773882	      6.41125335	     -5.14011567	    -16.23331273	      2.14236516	    -21.41750220	     -0.44007074	    -18.23627131	     -6.11145291	     -8.18501503	    -18.38205110	      0.55031487	     -5.93069243	     19.85519384	      0.00000000	      0.00071804	      0.00000000	      9.71397578	     -8.06919589	      6.82044426	    -18.34832198
      0.57916667	      0.69402884	     -5.35451145	     10.64960584	      0.00831641	      0.95593791	      0.21327933	     26.51750740	      6.60165625	     -4.90861467	    -17.10106867	      1.78522624	    -21.34881805	     -0.40782545	    -18.30391992	     -6.27613850	     -8.11526372	    -18.74583996	      0.97772144	     -5.88369817	     19.88137545	      0.00000000	      0.00076877	      0.00000000	      9.56186444	     -8.09083585	      7.01207278	    -18.31649970
      0.58333333	      0.17983557	     -5.35688350	     10.16819797	      0.01483064	      0.95398623	      0.21415375	     27.57977980	      6.79070549	     -4.39303736	    -18.50278270	      0.86402681	    -21.95801568	      0.37141899	    -17.69744842	     -6.14234655	     -8.57969930	    -19.58476046	      1.10329323	     -5.93875914	     19.83295467	      0.00000000	      0.00094982	      0.00000000	      9.34625286	     -7.48177196	      6.88263143	    -17.72574217
      0.58750000	      0.29635085	     -5.48603495	     10.10159558	      0.02144512	      0.95308921	      0.21416796	     27.75789305	      7.02731718	     -4.30085317	    -19.51643382	      0.38620322	    -21.94927353	      0.44800279	    -17.78150461	     -6.32239965	     -8.62791314	    -20.07731984	      1.44982787	     -5.88737646	     19.70505128	      0.00000000	      0.00095132	      0.00000000	      9.08326791	     -7.52218136	      7.15304430	    -17.74316405
      0.59166667	      0.36642822	     -5.61581311	     10.00760719	      0.02805398	      0.95223520	      0.21438972	     27.96095263	      7.28877610	     -4.16870014	    -20.48825436	     -0.04837534	    -21.95849703	      0.54643042	    -17.77328356	     -6.50603515	     -8.70318879	    -20.60936303	      1.83386722	     -5.83302852	     19.61620564	      0.00000000	      0.00103616	      0.00000000	      8.78187170	     -7.52873405	      7.35583488	    -17.68902928
      0.59583333	     -0.02198508	     -5.70739106	      9.74852749	      0.03451339	      0.95071491	      0.21513312	     28.69831652	      7.56556099	     -3.64893620	    -21.53864511	     -0.78889609	    -22.62661844	      1.30758210	    -17.01267430	     -6.61924323	     -9.14417408	    -21.96533664	      1.79133962	     -6.01427660	     19.74459590	      0.00000000	      0.00133338	      0.00000000	      8.44599011	     -7.03656685	      7.35003701	    -17.16372028
      0.60000000	      0.11750335	     -5.83549234	      9.74686986	      0.04110432	      0.95019587	      0.21527640	     28.72651882	      7.81840718	     -3.49785835	    -22.35446508	     -1.01376060	    -22.56776830	      1.33109699	    -16.99990208	     -6.84171111	     -9.11674299	    -22.44864359	      2.34420090	     -5.90946157	     19.66262156	      0.00000000	      0.00147060	      0.00000000	      8.09385393	     -7.13370217	      7.58437330	    -17.18858767
      0.60416667	      0.25139628	     -6.02446376	      9.55516535	      0.04793291	      0.94951544	      0.21567273	     28.85848330	      8.16398206	     -3.48288895	    -23.36963411	     -1.32216215	    -22.56604223	      1.38428426	    -17.01405628	     -7.08041109	     -9.27660306	    -23.06665033	      2.69492488	     -5.79254375	     19.38948185	      0.00000000	      0.00148563	      0.00000000	      7.60857870	     -7.16254401	      7.87233086	    -17.15897994
      0.60833333	      0.37044576	     -6.12729423	      9.60315311	      0.05464331	      0.94921961	      0.21578973	     28.79384029	      8.37943006	     -3.32187237	    -24.03453200	     -1.45838347	    -22.52006483	      1.41053961	    -16.88894213	     -7.29506686	     -9.31889968	    -23.59400687	      3.34580247	     -5.71210589	     19.25580108	      0.00000000	      0.00181202	      0.00000000	      7.24433500	     -7.19386078	      8.03574262	    -17.12361545
      0.61250000	      0.20282715	     -6.42490173	      9.30507953	      0.06123236	      0.94804090	      0.21671336	     29.28544767	      8.89854809	     -3.05314466	    -25.07437418	     -1.72717197	    -22.84720486	      1.72289724	    -16.20338686	     -7.71652660	     -9.84395230	    -25.34445134	      3.02778808	     -5.86424497	     19.19718289	      0.00000000	      0.00197370	      0.00000000	      6.63276163	     -6.93344172	      8.31119474	    -16.46568285
      0.61666667	      0.33095608	     -6.51557927	      9.31770644	      0.06797430	      0.94792584	      0.21692659	     29.16041111	      9.10464153	     -2.95603981	    -25.68184024	     -1.82511669	    -22.81715414	      1.73789622	    -16.03000199	     -7.91853264	     -9.94690665	    -25.88449420	      3.75896000	     -5.79751737	     18.98421191	      0.00000000	      0.00235330	      0.00000000	      6.22038645	     -6.97406778	      8.44743163	    -16.48002592
      0.62083333	      0.47513113	     -6.75044553	      9.08242082	      0.07478516	      0.94748116	      0.21755280	     29.21030076	      9.53921612	     -2.92758612	    -26.61639230	     -1.89639970	    -22.84336179	      1.78013205	    -15.92292293	     -8.22733457	    -10.13997720	    -26.66046991	      4.09776007	     -5.65998264	     18.56298498	      0.00000000	      0.00227240	      0.00000000	      5.52949341	     -7.04010290	      8.77214621	    -16.45191512
      0.62500000	      0.59794481	     -6.83363905	      9.11199681	      0.08162420	      0.94754521	      0.21779756	     29.01030385	      9.73909350	     -2.83716991	    -27.12651756	     -1.92280401	    -22.82205242	      1.80086501	    -15.67417293	     -8.45294490	    -10.29942440	    -27.25253172	      4.85252022	     -5.58980029	     18.24966166	      0.00000000	      0.00278153	      0.00000000	      5.12540207	     -7.05119659	      8.89169834	    -16.41760704
      0.62916667	      0.72394226	     -7.18026447	      8.82528434	      0.08824989	      0.94710033	      0.21854796	     29.03394048	     10.32422490	     -2.74462421	    -27.95264151	     -1.75578355	    -22.88510532	      1.88104750	    -15.38999075	     -8.89685858	    -10.51830708	    -28.41984053	      4.92708542	     -5.50183106	     17.56829110	      0.00000000	      0.00254744	      0.00000000	      4.33027751	     -7.13094710	      9.32613080	    -16.18017121
      0.63333333	      0.76580082	     -7.47680127	      8.75779279	      0.09480888	      0.94684457	      0.21918672	     28.97510568	     10.81355028	     -2.58497995	    -28.47581850	     -1.52746014	    -22.98227166	      1.95670774	    -14.72929041	     -9.41303977	    -10.77240258	    -30.08443714	      4.86688191	     -5.62850400	     17.01209402	      0.00000000	      0.00302539	      0.00000000	      3.74700961	     -7.08628775	      9.62590437	    -15.77946872
      0.63750000	      0.37802202	     -7.77329531	      8.83657011	      0.10096548	      0.94596846	      0.22001890	     29.43164802	     11.17446322	     -2.59351128	    -29.01938460	     -1.62262923	    -23.42916140	      1.79326235	    -12.96379532	    -10.17875447	    -11.65351487	    -33.41517079	      3.97530152	     -6.46435204	     17.19968292	      0.00000000	      0.00475625	      0.00000000	      3.20364522	     -6.55351353	      9.83191836	    -15.70581861
